<?xml version="1.0" encoding="UTF-8" standalone="no"?>
<!-- Created with Inkscape (http://www.inkscape.org/) -->

<svg
   width="130.75571mm"
   height="128.46182mm"
   viewBox="0 0 130.75571 128.46182"
   version="1.1"
   id="svg5"
   inkscape:version="1.1.2 (0a00cf5339, 2022-02-04)"
   sodipodi:docname="bgg.svg"
   xmlns:inkscape="http://www.inkscape.org/namespaces/inkscape"
   xmlns:sodipodi="http://sodipodi.sourceforge.net/DTD/sodipodi-0.dtd"
   xmlns="http://www.w3.org/2000/svg"
   xmlns:svg="http://www.w3.org/2000/svg">
  <sodipodi:namedview
     id="namedview7"
     pagecolor="#ffffff"
     bordercolor="#666666"
     borderopacity="1.0"
     inkscape:pageshadow="2"
     inkscape:pageopacity="0.0"
     inkscape:pagecheckerboard="0"
     inkscape:document-units="mm"
     showgrid="false"
     fit-margin-top="0"
     fit-margin-left="0"
     fit-margin-right="0"
     fit-margin-bottom="0"
     inkscape:zoom="0.64052329"
     inkscape:cx="-243.55086"
     inkscape:cy="181.10192"
     inkscape:window-width="1920"
     inkscape:window-height="1043"
     inkscape:window-x="0"
     inkscape:window-y="0"
     inkscape:window-maximized="1"
     inkscape:current-layer="layer1" />
  <defs
     id="defs2" />
  <g
     inkscape:groupmode="layer"
     id="layer2"
     inkscape:label="Layer 2"
     style="display:inline"
     transform="translate(-24.351311,-52.707115)">
    <ellipse
       style="display:inline;fill:#3e3b60;fill-opacity:1;stroke-width:1.465;stroke-linecap:round;stroke-linejoin:round;stroke-dashoffset:0.272353;paint-order:stroke markers fill"
       id="path38257"
       cx="89.729164"
       cy="116.93803"
       rx="65.377853"
       ry="64.230911" />
  </g>
  <g
     inkscape:label="Layer 1"
     inkscape:groupmode="layer"
     id="layer1"
     style="display:inline"
     transform="translate(-24.351311,-52.707115)">
    <path
       style="fill:#9e9bbc;fill-opacity:1;stroke-width:1.52815;stroke-linecap:round;stroke-linejoin:round;stroke-dashoffset:0.272353;paint-order:stroke markers fill"
       d=""
       id="path38077"
       transform="scale(0.26458333)" />
    <g
       id="g47828"
       transform="translate(-0.30046079,3.769185)">
      <path
         style="fill:#000000;stroke-width:0.264583"
         d="m 77.605245,149.27589 c -0.285869,-0.66691 -0.519763,-1.26137 -0.519763,-1.32103 0,-0.0966 -0.699733,-1.90686 -3.827399,-9.90183 -0.483892,-1.23693 -1.50218,-3.8563 -2.262863,-5.82083 -2.806218,-7.24731 -4.277228,-11.01135 -4.775605,-12.21989 -0.78165,-1.89546 -0.696005,-2.14592 1.473158,-4.30805 2.118961,-2.1121 2.111513,-2.09268 1.728428,-4.50644 -0.138571,-0.87312 -0.371761,-2.71859 -0.518197,-4.10104 -0.146437,-1.38245 -0.567939,-4.83209 -0.936676,-7.665859 -0.934704,-7.183298 -1.22188,-6.283902 2.439821,-7.641223 3.707432,-1.374267 6.415742,-2.392249 8.928291,-3.355904 1.018646,-0.390686 2.566459,-0.9775 3.439584,-1.304033 0.873125,-0.32653 3.373438,-1.271861 5.55625,-2.100735 2.182813,-0.828873 5.337969,-2.025024 7.011459,-2.658113 1.67349,-0.633089 5.602557,-2.124631 8.731247,-3.314537 7.02383,-2.671302 8.68795,-3.238425 8.9775,-3.059477 0.25275,0.156211 -0.61968,2.387018 -2.48781,6.361337 -0.68402,1.455208 -1.46132,3.181615 -1.72734,3.836458 -0.26601,0.654844 -0.91643,2.132793 -1.44538,3.284332 -0.52894,1.15154 -0.80704,1.975138 -0.61799,1.830218 0.53503,-0.410136 5.96622,-1.756929 6.40545,-1.588381 0.2702,0.103685 0.3584,0.42151 0.28419,1.024067 -0.0592,0.480547 -0.29011,2.242942 -0.51316,3.916431 -0.22306,1.67349 -0.76949,6.138339 -1.21431,9.921879 -0.4448,3.78354 -0.87202,7.41495 -0.94935,8.06979 -0.13999,1.18535 -0.13231,1.19879 1.73317,3.03561 2.16438,2.13113 2.17062,2.16366 0.96002,5.00568 -1.08087,2.53746 -6.66402,16.03479 -7.53247,18.20986 -0.60337,1.51112 -0.60593,1.51336 -2.6273,2.28695 -2.11512,0.80947 -7.817815,2.97301 -13.003551,4.93341 -1.673489,0.63264 -4.935889,1.87333 -7.249779,2.75708 -5.034664,1.92291 -4.811284,1.90678 -5.459625,0.39427 z m 6.888571,-1.48411 c 2.692135,-1.01182 6.085417,-2.29858 7.540625,-2.85945 1.455209,-0.56088 4.134115,-1.57458 5.953125,-2.25267 7.916894,-2.95127 6.170644,-0.92335 11.160754,-12.961 1.02552,-2.47386 2.50576,-6.02496 3.28941,-7.89134 1.76285,-4.19844 1.79578,-3.79032 -0.4809,-5.96134 -1.90574,-1.8173 -1.90574,-1.8173 -1.44746,-5.35939 0.25206,-1.94816 0.87209,-6.93538 1.37785,-11.082728 0.50577,-4.147344 0.98748,-7.978151 1.07048,-8.512906 0.1509,-0.97228 0.1509,-0.97228 -1.12576,-0.567333 -0.70217,0.222721 -1.69338,0.496827 -2.20271,0.609121 -0.50932,0.112297 -1.48776,0.361503 -2.17431,0.553789 -1.62037,0.453835 -1.70133,0.32081 -0.88756,-1.458285 0.37434,-0.818391 0.68062,-1.539844 0.68062,-1.603225 0,-0.06338 0.99404,-2.292274 2.20897,-4.953096 3.47417,-7.608784 3.38242,-7.153619 1.28356,-6.367815 -0.97501,0.365037 -2.48711,0.930365 -3.36023,1.256284 -0.87313,0.325919 -2.54,0.958489 -3.70417,1.405712 -1.16417,0.447222 -4.021668,1.524047 -6.350002,2.392944 -2.328333,0.868897 -5.304896,1.998764 -6.614584,2.510816 -1.309687,0.512052 -4.524375,1.717007 -7.14375,2.677677 -2.619375,0.96067 -5.298282,1.978596 -5.953125,2.26206 -0.654844,0.283462 -3.036094,1.192935 -5.291667,2.021052 -2.255574,0.828117 -4.208294,1.600319 -4.339382,1.716003 -0.210219,0.18552 0.336675,5.727139 1.159169,11.74574 1.291069,9.44739 1.358133,8.6556 -0.927335,10.94848 -2.328268,2.33583 -2.243636,1.83211 -0.891895,5.30857 4.850461,12.47461 5.163405,13.28306 6.739742,17.41119 0.931802,2.44021 1.680374,4.32757 1.967638,4.96093 0.217744,0.4801 1.79347,4.60516 2.205194,5.77293 0.205279,0.58224 -0.09502,0.66491 6.257703,-1.72272 z m -8.033264,-29.88911 c -4.998363,-3.70316 -2.868777,-11.14034 3.354851,-11.71621 2.612744,-0.24175 5.334241,1.25604 6.316332,3.47622 0.827534,1.87078 6.767341,1.76399 7.73166,-0.139 1.844619,-3.64019 7.696385,-4.53827 10.378165,-1.59275 3.03327,3.33156 2.07603,8.77626 -1.87236,10.6499 -3.634241,1.72456 -9.144134,-1.06963 -9.144134,-4.63719 0,-0.73449 -6.281148,-0.76711 -6.513026,-0.0338 -1.542881,4.87905 -6.466774,6.79686 -10.251488,3.99287 z m 5.332783,0.61057 c 0.191492,-0.12149 -0.275918,-0.16585 -1.061188,-0.10073 -2.434096,0.20185 -3.5471,-1.57654 -1.628516,-2.6021 0.762572,-0.40762 1.421434,-1.67627 1.421434,-2.73701 0,-1.34517 2.78746,-2.03832 4.204788,-1.04559 1.151988,0.80689 0.115184,4.37044 -1.625277,5.58616 -0.468747,0.32742 -0.721172,0.59531 -0.560946,0.59531 1.121942,0 3.802269,-3.39594 3.802269,-4.81743 0,-0.45541 0.243882,-0.48444 3.49304,-0.41577 3.493043,0.0738 3.493043,0.0738 4.034896,1.48157 0.986515,2.56297 2.842377,3.9916 5.400273,4.15709 1.430132,0.0925 1.441042,0.0885 0.264838,-0.0972 -2.181599,-0.34441 -2.869095,-1.73902 -1.265952,-2.56804 0.853636,-0.44143 1.566656,-1.75042 1.566656,-2.87614 0,-1.41151 3.08042,-2.10245 4.23333,-0.94954 1.30518,1.30518 -0.23063,4.956 -2.51354,5.97499 -0.43656,0.19487 -0.59885,0.35896 -0.36063,0.36466 1.99007,0.0476 4.60278,-3.58419 4.38419,-6.09422 -0.57612,-6.61549 -8.564975,-7.91619 -11.664056,-1.89907 -0.442883,0.85989 -0.442883,0.85989 -4.003506,0.85989 -3.560625,0 -3.560625,0 -4.232254,-1.32539 -2.111603,-4.16705 -7.786585,-4.52981 -10.443851,-0.66761 -1.840016,2.67437 -1.16554,6.06649 1.651762,8.30717 1.113486,0.88559 4.054317,1.40687 4.90224,0.86896 z m 0.738746,-1.41496 c 1.728531,-1.18441 2.541685,-4.09607 1.301713,-4.66104 -0.735687,-0.3352 -2.243109,-0.13385 -2.392365,0.31956 -0.05307,0.16121 -0.227709,0.8054 -0.388091,1.43154 -0.288915,1.12794 -0.827188,1.86564 -1.729918,2.37083 -0.287504,0.1609 -0.404108,0.42716 -0.302744,0.69132 0.257077,0.66993 2.450317,0.57486 3.511405,-0.15221 z m 19.517939,-0.21353 c 1.75697,-1.54264 2.36042,-4.01592 1.09704,-4.49626 -0.76438,-0.29062 -2.24944,-0.0619 -2.39105,0.36831 -0.0531,0.16121 -0.22771,0.8054 -0.38809,1.43154 -0.28891,1.12794 -0.827186,1.86564 -1.729915,2.37083 -0.906441,0.50727 -0.258175,1.12094 1.184135,1.12094 1.09221,0 1.47948,-0.13825 2.22788,-0.79536 z"
         id="path309" />
      <path
         style="fill:#fe5100;fill-opacity:1;stroke-width:4.32225;stroke-linecap:round;stroke-linejoin:round;stroke-dashoffset:0.272353;paint-order:stroke markers fill"
         d="m 295.95478,564.26882 c -0.38564,-1.01093 -2.82162,-7.28283 -5.4133,-13.93754 -28.33097,-72.7461 -39.1845,-101.12561 -39.1845,-102.45859 0,-0.9201 2.60357,-4.29883 6.19623,-8.04102 4.45251,-4.63785 6.43604,-7.34475 7.0484,-9.61891 0.92016,-3.4172 0.6943,-5.83986 -3.79332,-40.6875 -2.4742,-19.21291 -4.02198,-35.1529 -3.49954,-36.04049 0.31629,-0.53736 5.3555,-2.52547 36.98188,-14.59039 32.80337,-12.51391 126.80987,-47.9307 128.30435,-48.33843 2.00526,-0.54709 1.80816,-0.009 -8.09339,22.07905 -12.33327,27.51315 -14.2727,32.24451 -13.76242,33.57427 0.5343,1.39238 0.41235,1.41246 15.17723,-2.49903 5.71373,-1.51367 10.49603,-2.62623 10.62733,-2.47237 0.13132,0.15387 -2.1759,19.42427 -5.12713,42.82311 -2.99154,23.71836 -5.16441,43.71772 -4.91057,45.19737 0.33009,1.92418 2.15689,4.43081 6.64286,9.11501 4.11036,4.29197 6.18628,7.06979 6.18374,8.27453 -0.002,0.99746 -1.8786,6.38013 -4.16999,11.96151 -26.16011,63.72094 -26.72858,65.00824 -30.4504,68.95559 -3.08394,3.27081 -5.09177,4.31482 -15.30643,7.95892 -4.52371,1.61384 -24.03231,8.91549 -43.35245,16.22588 -19.32015,7.31039 -36.08826,13.53134 -37.26248,13.82435 -1.77595,0.44315 -2.25285,0.22366 -2.8361,-1.30532 z m 16.84979,-115.43881 c 4.9993,-2.17018 10.84779,-8.10034 13.52861,-13.71747 1.51304,-3.1703 2.95333,-5.09703 4.07815,-5.45546 2.26444,-0.72161 15.8379,-0.7076 19.10758,0.0197 1.90109,0.42288 2.54128,0.98901 2.55413,2.25868 0.0274,2.70458 2.64585,7.71716 5.5244,10.57539 1.46018,1.44988 4.93817,3.73317 7.72886,5.07398 4.5286,2.1758 5.8291,2.43723 12.09948,2.43223 5.78089,-0.005 7.60956,-0.31669 10.32237,-1.76167 4.69486,-2.50069 8.68691,-6.77926 11.03402,-11.82593 1.68718,-3.6277 2.02632,-5.4764 2.01719,-10.99607 -0.0128,-7.74773 -1.53808,-11.90625 -6.30733,-17.19635 -4.42065,-4.90344 -9.43388,-6.9856 -16.84182,-6.99499 -10.56467,-0.0134 -15.28194,2.61491 -24.77873,13.80583 -2.22937,2.62708 -9.48694,4.4254 -15.74304,3.90091 -6.84167,-0.57358 -9.44994,-2.01703 -12.63497,-6.99237 -4.9261,-7.69509 -12.29395,-11.12988 -22.65421,-10.56109 -7.15202,0.39266 -11.0656,1.98694 -16.14729,6.57794 -7.33315,6.62506 -9.60754,18.43197 -5.33121,27.67558 5.84367,12.63157 20.23805,18.47966 32.44381,13.18115 z"
         id="path12809"
         transform="scale(0.26458333)" />
      <path
         style="fill:#3e3b60;fill-opacity:1;stroke-width:4.32225;stroke-linecap:round;stroke-linejoin:round;stroke-dashoffset:0.272353;paint-order:stroke markers fill"
         d="m 293.11971,445.60414 c -6.44957,-3.54572 -12.10299,-12.97681 -12.09124,-20.17074 0.0176,-10.80222 9.2263,-20.65225 20.23115,-21.64022 8.28153,-0.74349 16.401,3.27531 20.85297,10.32135 4.49795,7.1188 3.29961,6.69894 18.43328,6.4584 l 13.43284,-0.21351 1.90118,-3.44804 c 8.19562,-14.86387 26.99752,-17.96842 37.13002,-6.13086 5.41435,6.32545 7.00889,16.60658 3.60432,23.23961 -2.19864,4.28354 -5.54013,8.83455 -6.08588,8.2888 -0.22025,-0.22026 0.34841,-1.35251 1.2637,-2.51612 2.24412,-2.85293 4.22187,-9.91128 3.58703,-12.80167 -0.79295,-3.61029 -3.76347,-5.4608 -8.76595,-5.4608 -5.03102,0 -8.6631,1.82656 -9.29777,4.67581 -1.56648,7.03255 -1.99367,7.84968 -5.76691,11.03133 -4.11768,3.47208 -4.76642,5.43824 -2.58841,7.8449 2.04856,2.26365 -0.35464,1.82809 -4.53259,-0.82148 -4.04471,-2.56509 -6.11455,-5.19814 -8.94318,-11.37667 -1.09199,-2.38521 -2.57355,-4.63798 -3.29236,-5.00615 -1.72036,-0.88116 -19.22404,-1.7623 -22.96002,-1.15582 -2.50683,0.40694 -3.02284,0.85198 -3.65892,3.15567 -0.73312,2.65516 -5.47138,10.69808 -5.99436,10.17509 -0.14925,-0.14925 0.42285,-2.09838 1.27134,-4.33142 2.1619,-5.68965 2.03485,-9.86702 -0.37335,-12.27521 -3.67221,-3.67221 -15.06827,-1.91031 -16.29047,2.51861 -0.21551,0.78096 -0.61934,2.76531 -0.89739,4.40967 -0.37398,2.21159 -1.50918,3.947 -4.36153,6.66756 -3.93823,3.75628 -4.89575,6.55444 -2.91924,8.53095 1.23105,1.23105 -0.6683,1.25141 -2.88826,0.031 z"
         id="path27432"
         transform="scale(0.26458333)" />
      <path
         style="fill:#9e9bbc;fill-opacity:1;stroke-width:1.52815;stroke-linecap:round;stroke-linejoin:round;stroke-dashoffset:0.272353;paint-order:stroke markers fill"
         d="m 300.09455,444.08395 c -2.0284,-0.92101 -1.92869,-2.29346 0.26927,-3.70649 3.44486,-2.21465 5.01326,-4.76442 6.70876,-10.9065 l 1.01918,-3.6921 1.26633,-0.58551 c 1.79742,-0.83107 6.06925,-0.84491 7.46629,-0.0242 1.49716,0.87955 2.08268,2.13021 2.06278,4.40604 -0.0427,4.88017 -3.94464,11.36179 -8.14857,13.53573 -2.82528,1.46101 -8.43911,1.97419 -10.64404,0.97301 z"
         id="path38038"
         transform="scale(0.26458333)" />
      <path
         style="fill:#9e9bbc;fill-opacity:1;stroke-width:1.52815;stroke-linecap:round;stroke-linejoin:round;stroke-dashoffset:0.272353;paint-order:stroke markers fill"
         d="m 373.86963,444.23704 c -2.72303,-0.76603 -3.07861,-2.20034 -0.88629,-3.57511 3.72886,-2.3383 5.35527,-4.85255 6.91563,-10.69083 1.14428,-4.28143 1.48049,-4.73123 3.91409,-5.23644 2.00051,-0.4153 5.19146,-0.22174 6.36217,0.38593 2.82717,1.46747 2.60857,6.38307 -0.5204,11.70212 -1.34689,2.28962 -4.99336,5.86345 -6.96422,6.82549 -1.42007,0.69317 -1.98844,0.8028 -4.5538,0.87835 -1.88888,0.0556 -3.40629,-0.0473 -4.26718,-0.28951 z"
         id="path38116"
         transform="scale(0.26458333)" />
    </g>
  </g>
</svg>
